<svg xmlns="http://www.w3.org/2000/svg" xmlns:xlink="http://www.w3.org/1999/xlink" viewBox="0 0 280 280"><defs><style>.cls-1{fill:#ffca08;}.cls-2{fill:url(#linear-gradient);}.cls-3{fill:#242633;}.cls-4{fill:url(#linear-gradient-2);}.cls-5{fill:url(#linear-gradient-3);}</style><linearGradient id="linear-gradient" x1="171.65" y1="106.59" x2="181.64" y2="116.58" gradientTransform="translate(130.62 -92.21) rotate(45)" gradientUnits="userSpaceOnUse"><stop offset="0" stop-color="#fff"/><stop offset="1" stop-color="#f0f3f3"/></linearGradient><linearGradient id="linear-gradient-2" x1="56.74" y1="170.49" x2="178.63" y2="170.49" gradientUnits="userSpaceOnUse"><stop offset="0" stop-color="#242633"/><stop offset="1" stop-color="#44475a"/></linearGradient><linearGradient id="linear-gradient-3" x1="255.49" y1="156.59" x2="140.16" y2="31.25" xlink:href="#linear-gradient-2"/></defs><title>hammer</title><g id="Layer_2" data-name="Layer 2"><g id="circles"><circle class="cls-1" cx="140" cy="140" r="140"/></g><g id="icons"><rect class="cls-2" x="165.56" y="102.84" width="22.12" height="17.43" transform="translate(-27.15 157.56) rotate(-45)"/><path class="cls-3" d="M193.64,111.8a1.55,1.55,0,0,1-2.18,0L176.37,96.71a1.55,1.55,0,0,1,0-2.18l2.85-2.85L196.49,109Z"/><path class="cls-4" d="M177.47,132a4,4,0,0,0,0-5.6L161.8,110.7a4,4,0,0,0-5.6,0l-98,98a5.06,5.06,0,0,0,0,7.15L72.34,230a5,5,0,0,0,7.15,0Z"/><path class="cls-5" d="M221.25,147.39a6,6,0,0,0,5.88-4.89c3.15-17,3.26-42.75-15.38-61.39,0,0-7.25-6.61-10.63-10.14a4.54,4.54,0,0,0-4.21-1.31,11.24,11.24,0,0,1-13.26-13.61,4.54,4.54,0,0,0-1.21-4.25L178.63,48a4.53,4.53,0,0,0-6.41,0L156.5,63.7a4.53,4.53,0,0,0,0,6.41l3.82,3.81a4.52,4.52,0,0,0,4.25,1.21,11.24,11.24,0,0,1,13.54,13.54,4.56,4.56,0,0,0,1.21,4.26l15.78,15.78a5.92,5.92,0,0,0,3.6,1.71c15.6,1.67,22.31,22.88,22.55,37Z"/><path class="cls-3" d="M68.65,215a2.5,2.5,0,0,1-1.77-4.27L157,120.64a2.5,2.5,0,0,1,3.54,3.54L70.42,214.29A2.49,2.49,0,0,1,68.65,215Z"/><path class="cls-3" d="M75.65,222a2.5,2.5,0,0,1-1.77-4.26L164,127.64a2.5,2.5,0,0,1,3.53,3.54L77.42,221.29A2.49,2.49,0,0,1,75.65,222Z"/></g></g></svg>