<svg xmlns="http://www.w3.org/2000/svg" xmlns:xlink="http://www.w3.org/1999/xlink" viewBox="0 0 280 280"><defs><style>.cls-1{fill:#79bd8f;}.cls-2{fill:#575b6d;}.cls-3{fill:url(#linear-gradient);}.cls-4{fill:#fff;}.cls-5{fill:#bfc4c9;}.cls-6{fill:#44475a;}.cls-7{fill:url(#linear-gradient-2);}.cls-8{fill:#f35b74;}.cls-9{fill:#801b53;}.cls-10{fill:#b4236e;}.cls-11{fill:url(#linear-gradient-3);}.cls-12{fill:#242633;}</style><linearGradient id="linear-gradient" x1="147.66" y1="167.95" x2="224.06" y2="110.21" gradientUnits="userSpaceOnUse"><stop offset="0" stop-color="#bfc4c9"/><stop offset="1" stop-color="#fff"/></linearGradient><linearGradient id="linear-gradient-2" x1="87.42" y1="203.08" x2="87.42" y2="118.98" xlink:href="#linear-gradient"/><linearGradient id="linear-gradient-3" x1="131.45" y1="137.76" x2="112.55" y2="166.72" xlink:href="#linear-gradient"/></defs><title>measurement</title><g id="Layer_2" data-name="Layer 2"><g id="circles"><circle class="cls-1" cx="140" cy="140" r="140"/></g><g id="icons"><polygon class="cls-2" points="130.15 90.09 130.16 90.05 130.16 90 130.15 90.09 130.15 90.09"/><polygon class="cls-3" points="178.45 151.43 245.91 101.72 231.28 97.86 171.9 141.6 178.45 151.43"/><polygon class="cls-4" points="181.45 155.94 248.92 106.23 245.91 101.72 178.45 151.43 181.45 155.94"/><path class="cls-5" d="M230.71,100.89a.8.8,0,1,0-.41,1.54l10.78,2.85,1.65-1.22Z"/><path class="cls-5" d="M210.18,115.36a.8.8,0,0,0,.57,1l11.28,3,1.65-1.22-12.52-3.31A.8.8,0,0,0,210.18,115.36Z"/><path class="cls-5" d="M191.15,129.4a.8.8,0,0,0,.57,1l11.26,3,1.65-1.22-12.5-3.31A.81.81,0,0,0,191.15,129.4Z"/><path class="cls-5" d="M230.06,105.36a.79.79,0,0,0,.56,1l6.65,1.76,1.65-1.22L231,104.79A.79.79,0,0,0,230.06,105.36Z"/><path class="cls-5" d="M226.25,108.16a.79.79,0,0,0,.56,1l6.65,1.76,1.65-1.22-7.89-2.09A.8.8,0,0,0,226.25,108.16Z"/><path class="cls-5" d="M222.44,111a.79.79,0,0,0,.56,1l6.65,1.75,1.65-1.21-7.89-2.09A.79.79,0,0,0,222.44,111Z"/><path class="cls-5" d="M218.63,113.78a.8.8,0,0,0,.56,1l6.65,1.75,1.65-1.22-7.89-2.08A.79.79,0,0,0,218.63,113.78Z"/><path class="cls-5" d="M192,133.43a.8.8,0,0,0,.57,1l6.64,1.75,1.65-1.22-7.88-2.08A.8.8,0,0,0,192,133.43Z"/><path class="cls-5" d="M188.15,136.24a.79.79,0,0,0,.57,1l6.64,1.76,1.65-1.22-7.88-2.08A.79.79,0,0,0,188.15,136.24Z"/><path class="cls-5" d="M184.34,139a.79.79,0,0,0,.57,1l6.64,1.76,1.65-1.22-7.89-2.09A.8.8,0,0,0,184.34,139Z"/><path class="cls-5" d="M180.53,141.85a.79.79,0,0,0,.57,1l6.64,1.75,1.65-1.21-7.88-2.09A.8.8,0,0,0,180.53,141.85Z"/><path class="cls-5" d="M211,119.39a.79.79,0,0,0,.57,1l6.64,1.76,1.65-1.22L212,118.82A.8.8,0,0,0,211,119.39Z"/><path class="cls-5" d="M207.2,122.2a.8.8,0,0,0,.57,1l6.64,1.75,1.65-1.21-7.89-2.09A.79.79,0,0,0,207.2,122.2Z"/><path class="cls-5" d="M203.39,125a.79.79,0,0,0,.57,1l6.64,1.76,1.65-1.22-7.89-2.08A.78.78,0,0,0,203.39,125Z"/><path class="cls-5" d="M199.58,127.81a.79.79,0,0,0,.57,1l6.64,1.76,1.65-1.22-7.89-2.08A.78.78,0,0,0,199.58,127.81Z"/><path class="cls-6" d="M188.88,154l-27.56-41.38a53.9,53.9,0,0,0-44.84-24.26,55,55,0,0,0-32.77,11c-25.44,18.74-32,55.19-14.63,81.27a53.91,53.91,0,0,0,44.84,24.26,55,55,0,0,0,32.79-11l40.39-29.76A7.44,7.44,0,0,0,188.88,154Zm-56,19.42a29.62,29.62,0,0,1-42.54-7.55c-9.49-14.35-5.82-34.23,8.18-44.4A29.63,29.63,0,0,1,141,129,32.94,32.94,0,0,1,132.86,173.38Z"/><path class="cls-7" d="M69,180.57c-.52-.78-1-1.57-1.49-2.37-.16-.26-.3-.53-.45-.8-.31-.54-.62-1.07-.91-1.62l-.5-1c-.25-.5-.5-1-.74-1.49-.17-.35-.32-.7-.48-1s-.43-1-.64-1.46-.29-.73-.44-1.09-.37-1-.55-1.47-.27-.73-.39-1.1-.33-1-.48-1.49-.23-.74-.34-1.11-.28-1-.42-1.54c-.09-.36-.19-.72-.27-1.07-.13-.56-.25-1.11-.37-1.67-.06-.32-.14-.65-.2-1-.13-.69-.25-1.38-.35-2.08,0-.19-.07-.38-.1-.57-.13-.88-.23-1.77-.32-2.65,0-.27,0-.55-.07-.82-.05-.62-.1-1.24-.14-1.86,0-.34,0-.69,0-1,0-.55,0-1.09,0-1.64,0-.37,0-.75,0-1.12,0-.52,0-1,0-1.56s0-.77,0-1.15.06-1,.1-1.53.07-.77.1-1.16.11-1,.17-1.52.09-.77.15-1.15.15-1,.24-1.54.12-.73.19-1.1c.1-.54.21-1.08.32-1.61.08-.34.14-.68.22-1,.14-.62.3-1.23.46-1.83.07-.26.13-.52.2-.77.23-.86.49-1.71.76-2.56l.21-.6c.22-.64.44-1.29.68-1.93.12-.31.24-.62.37-.93.2-.52.41-1,.63-1.57.14-.34.29-.67.44-1,.22-.49.44-1,.67-1.45s.33-.69.51-1,.46-.93.71-1.39.37-.68.56-1,.51-.9.77-1.35l.6-1c.28-.45.57-.89.86-1.34s.41-.63.63-.94.63-.9,1-1.35l.63-.87c.37-.49.75-1,1.13-1.44.19-.24.37-.48.56-.71q.87-1.05,1.8-2.07l.12-.13c.58-.64,1.18-1.26,1.79-1.87.14-.15.29-.28.43-.42.49-.48,1-.95,1.49-1.42l.65-.58c.47-.42,1-.83,1.44-1.24l.63-.52c.69-.56,1.39-1.11,2.12-1.64s1.6-1.15,2.41-1.68l.72-.46c.52-.34,1-.66,1.58-1l1.46-.84,1.36-.73c.49-.26,1-.51,1.49-.75s.91-.44,1.38-.65l1.51-.65c.47-.2.93-.39,1.4-.57l1.53-.56,1.69-.57.6-.19c.86-.26,1.71-.49,2.57-.71l.47-.11c.75-.18,1.51-.34,2.26-.49l.59-.12c.86-.16,1.72-.29,2.59-.41l.55-.07c.75-.09,1.5-.17,2.25-.23l.54,0c.86-.06,1.73-.1,2.6-.12h.58c.77,0,1.55,0,2.32,0h.41c.87,0,1.74.09,2.6.17l.6.06c.81.08,1.62.17,2.42.29l.24,0c.87.13,1.73.29,2.59.46l.6.12c.86.18,1.72.38,2.57.61l-14.63-3.87c-.85-.23-1.71-.42-2.57-.6l-.62-.13c-.85-.17-1.71-.33-2.57-.46l-.26,0c-.8-.12-1.6-.21-2.4-.29l-.61-.06c-.86-.07-1.73-.13-2.59-.16h-.42c-.77,0-1.55,0-2.33,0h-1c-.74,0-1.48.06-2.23.12l-.5,0c-.77.06-1.53.14-2.3.24l-.52.06q-1.3.18-2.61.42l-.56.11c-.77.15-1.53.31-2.29.5l-.45.1c-.86.22-1.72.46-2.57.71l-.61.2c-.29.09-.58.17-.87.27h0c-.28.09-.55.2-.82.3l-1.52.55-1.42.57-1.49.65c-.47.21-.93.43-1.4.66s-1,.48-1.47.74-.92.48-1.38.74l-1.44.83-.7.41c-.3.18-.59.38-.89.57s-.48.3-.71.46c-.82.54-1.62,1.09-2.42,1.68S67.62,96.44,66.92,97l-.63.53c-.49.4-1,.81-1.43,1.23l-.66.59c-.5.46-1,.92-1.47,1.39l-.45.45-.12.11c-.54.54-1.06,1.1-1.58,1.66l-.22.23c-.61.67-1.2,1.36-1.78,2.06L58,106c-.37.46-.74.92-1.1,1.4-.22.29-.44.59-.65.89l-.94,1.32c-.22.32-.43.65-.64,1s-.57.87-.84,1.31-.41.68-.61,1-.52.88-.76,1.32-.39.69-.57,1-.48.91-.71,1.37l-.51,1c-.23.48-.44,1-.66,1.43l-.45,1c-.22.51-.42,1-.62,1.55-.13.31-.26.63-.38,1q-.34.93-.66,1.89c-.07.21-.15.42-.22.64-.28.84-.53,1.69-.77,2.55-.07.26-.13.53-.2.79-.16.6-.32,1.2-.46,1.8l-.21,1c-.12.53-.23,1.06-.33,1.6-.07.37-.13.74-.19,1.11s-.17,1-.24,1.54l-.15,1.14c-.06.51-.12,1-.16,1.52s-.08.78-.11,1.17-.07,1-.09,1.52l-.06,1.16c0,.51,0,1,0,1.55s0,.75,0,1.13c0,.54,0,1.09,0,1.63,0,.35,0,.7,0,1,0,.63.08,1.25.14,1.87,0,.27,0,.54.06.81.09.89.2,1.77.32,2.65,0,.19.07.38.1.56.1.7.22,1.4.35,2.09.06.33.14.65.21,1,.11.56.23,1.11.36,1.67.09.36.18.71.28,1.06q.2.78.42,1.56c.1.36.22.73.33,1.1s.31,1,.48,1.49l.39,1.1c.18.5.36,1,.56,1.47s.28.73.43,1.09.42,1,.64,1.46l.48,1c.24.5.49,1,.74,1.5l.5,1c.29.54.6,1.08.91,1.61.15.27.3.54.46.8.47.8,1,1.59,1.49,2.37a53.9,53.9,0,0,0,31.2,22.51l14.63,3.87A54,54,0,0,1,69,180.57Z"/><path class="cls-8" d="M164.53,148.36a7.49,7.49,0,0,1,10.75,1.91,8.34,8.34,0,0,1-2.06,11.23,7.5,7.5,0,0,1-10.76-1.91A8.33,8.33,0,0,1,164.53,148.36Z"/><path class="cls-9" d="M166,151a4.89,4.89,0,1,1,5.58,8,4.89,4.89,0,0,1-6.82-1.19A5.1,5.1,0,0,1,166,151Z"/><path class="cls-10" d="M166.89,151.16a4.22,4.22,0,0,1,6.17,1.13,5.06,5.06,0,0,1-1.19,6.66,4.21,4.21,0,0,1-6.16-1.14A5,5,0,0,1,166.89,151.16Z"/><path class="cls-11" d="M141,129a29.59,29.59,0,0,0-22.35-13.33c15,7.18,19.6,21.36,17.37,32.64-3,15.41-17.21,25.36-36.1,25.36-.73,0-1.48,0-2.24,0a29.66,29.66,0,0,0,35.14-.23A32.94,32.94,0,0,0,141,129Z"/><path class="cls-12" d="M146.87,124.74a36.44,36.44,0,0,0-52.32-9.3c-17.23,12.52-21.74,37-10.07,54.63a36.46,36.46,0,0,0,52.34,9.29C154.05,166.85,158.55,142.39,146.87,124.74Zm-14,48.64a29.62,29.62,0,0,1-42.54-7.55c-9.49-14.35-5.82-34.23,8.18-44.4A29.63,29.63,0,0,1,141,129,32.94,32.94,0,0,1,132.86,173.38Z"/></g></g></svg>