<svg xmlns="http://www.w3.org/2000/svg" viewBox="0 0 280 280"><defs><style>.cls-1{fill:#4abab7;}.cls-2{fill:#696c7c;}.cls-3{fill:#344f6a;}.cls-4{fill:#f0f3f3;}.cls-5{opacity:0.1;}</style></defs><title>mix tank</title><g id="Layer_2" data-name="Layer 2"><g id="circles"><circle class="cls-1" cx="140" cy="140" r="140"/></g><g id="icons"><path class="cls-2" d="M134.52,216.54a11.26,11.26,0,0,0,11.26,11.26h70.46V216.54H148.66a1.32,1.32,0,0,1-1.32-1.31l-.05-9.61-12.77-.79v11.71Z"/><path class="cls-3" d="M132.24,33.69h9.12a2.89,2.89,0,0,1,2.89,2.89v22a0,0,0,0,1,0,0H129.36a0,0,0,0,1,0,0v-22A2.89,2.89,0,0,1,132.24,33.69Z"/><polygon class="cls-3" points="100.9 230.52 90.41 230.52 90.41 179.69 113.45 179.69 100.9 230.52"/><polygon class="cls-3" points="178.32 230.52 188.82 230.52 188.82 179.69 165.77 179.69 178.32 230.52"/><rect class="cls-4" x="79.84" y="121.33" width="21.06" height="23.54" rx="3.03"/><rect class="cls-4" x="178.29" y="121.42" width="21.06" height="23.54" rx="3.03"/><path class="cls-4" d="M188.82,82.35v99.2c0,14-23.6,33.2-47.62,33.2h-4.4V51.64h1.54C166.21,51.64,188.82,72.36,188.82,82.35Z"/><path class="cls-4" d="M84.79,82.35v99.2c0,14,23.6,33.2,47.61,33.2h4.4V51.64h-1.54C107.4,51.64,84.79,72.36,84.79,82.35Z"/><rect class="cls-3" x="78.87" y="122.07" width="115.86" height="4.28" rx="0.77" transform="translate(12.59 261.01) rotate(-90)"/><path class="cls-3" d="M156.57,183.25l2.85-.37a.93.93,0,1,0,0-1.86l-2.85-.37a50.14,50.14,0,0,0-9.8-.3l-9.15.61a.82.82,0,0,0-.83.76v.46a.82.82,0,0,0,.83.75l9.15.62A50.14,50.14,0,0,0,156.57,183.25Z"/><path class="cls-3" d="M117,183.25l-2.85-.37a.93.93,0,1,1,0-1.86l2.85-.37a50,50,0,0,1,9.79-.3L136,181a.83.83,0,0,1,.84.76v.46a.83.83,0,0,1-.84.75l-9.15.62A50,50,0,0,1,117,183.25Z"/><path class="cls-3" d="M123.79,196.71l-2.28,1.76c-1,.78-2.1-.3-1.31-1.32l1.75-2.28a50.29,50.29,0,0,1,6.71-7.13l6.91-6a.82.82,0,0,1,1.12-.06l.33.33a.84.84,0,0,1-.06,1.13l-6,6.9A50.32,50.32,0,0,1,123.79,196.71Z"/><path class="cls-3" d="M149.75,196.71l2.28,1.76c1,.78,2.1-.3,1.31-1.32l-1.75-2.28a50.29,50.29,0,0,0-6.71-7.13l-6.91-6a.82.82,0,0,0-1.12-.06l-.33.33a.84.84,0,0,0,.06,1.13l6,6.9A49.79,49.79,0,0,0,149.75,196.71Z"/><path class="cls-3" d="M135.49,201.64l.37,2.85a.93.93,0,1,0,1.86,0l.37-2.85a50,50,0,0,0,.3-9.79l-.62-9.15a.83.83,0,0,0-.75-.84h-.46a.83.83,0,0,0-.76.84l-.61,9.15A50,50,0,0,0,135.49,201.64Z"/><path class="cls-5" d="M136.8,51.64V214.75h-4.4c-24,0-47.61-19.2-47.61-33.2V144.88H82.87a3,3,0,0,1-3-3V124.36a3,3,0,0,1,3-3h1.92v-39c0-10,22.61-30.71,50.47-30.71Z"/></g></g></svg>