<svg xmlns="http://www.w3.org/2000/svg" xmlns:xlink="http://www.w3.org/1999/xlink" viewBox="0 0 280 280"><defs><style>.cls-1{fill:#44475a;}.cls-2{fill:#e47e00;}.cls-3{fill:#f19d00;}.cls-4{fill:#fff;}.cls-5{fill:#f0f3f3;}.cls-6{fill:#ffca08;}.cls-7{fill:url(#linear-gradient);}.cls-8{fill:url(#linear-gradient-2);}</style><linearGradient id="linear-gradient" x1="1846.71" y1="-1440.55" x2="1713.27" y2="-1440.55" gradientTransform="translate(-1298.62 -1634.66) rotate(90)" gradientUnits="userSpaceOnUse"><stop offset="0" stop-color="#e47e00"/><stop offset="1" stop-color="#ffca08"/></linearGradient><linearGradient id="linear-gradient-2" x1="1845.29" y1="-1452.08" x2="1712.28" y2="-1452.08" gradientTransform="translate(-1301.99 -1642.83) rotate(90)" xlink:href="#linear-gradient"/></defs><title>paint</title><g id="Layer_2" data-name="Layer 2"><g id="circles"><circle class="cls-1" cx="140" cy="140" r="140"/></g><g id="icons"><path class="cls-2" d="M66,220.57l5.18-5.18.21.2a5.25,5.25,0,0,0,7.43-7.42L78.6,208l56.48-56.48,31.67,31.67-.21.21a14.2,14.2,0,0,1-20,0,20.56,20.56,0,0,0-27.95-1,152.79,152.79,0,0,0-17.06,17.45l-17,20.43a12.19,12.19,0,0,1-18,.82Z"/><path class="cls-3" d="M65.89,220.47a12.19,12.19,0,0,1,.82-18l20.43-17a152.55,152.55,0,0,0,17.43-17.05,20.57,20.57,0,0,0-.95-28,14.19,14.19,0,0,1,0-20.05l.21-.21L135.5,151.9,79,208.38l-.21-.21a5.25,5.25,0,0,0-7.43,7.42l.21.22L66.41,221Z"/><polygon class="cls-4" points="247.31 111.7 247.31 106.68 241.72 106.68 241.72 101.1 236.14 101.1 236.14 95.51 230.56 95.51 230.56 89.93 224.97 89.93 224.97 84.34 219.39 84.34 219.39 78.76 213.8 78.76 213.8 73.18 208.22 73.18 208.22 67.59 202.63 67.59 202.63 62.01 197.05 62.01 197.05 56.42 191.47 56.42 191.47 50.84 185.88 50.84 185.88 45.26 180.3 45.25 180.3 39.67 175.28 39.67 126.81 88.14 198.84 160.16 247.31 111.7"/><path class="cls-5" d="M136.2,89.49a1.68,1.68,0,0,1,0-2.38L175.61,47.7A1.68,1.68,0,0,1,178,50.08L138.58,89.49A1.68,1.68,0,0,1,136.2,89.49Z"/><path class="cls-5" d="M141.77,95.06a1.69,1.69,0,0,1,0-2.38l39.41-39.41a1.68,1.68,0,0,1,2.38,2.38L144.15,95.06A1.68,1.68,0,0,1,141.77,95.06Z"/><path class="cls-5" d="M147.34,100.63a1.68,1.68,0,0,1,0-2.37l39.41-39.41a1.68,1.68,0,1,1,2.38,2.37l-39.41,39.41A1.68,1.68,0,0,1,147.34,100.63Z"/><path class="cls-5" d="M152.92,106.21a1.68,1.68,0,0,1,0-2.38l39.4-39.41a1.68,1.68,0,0,1,2.38,2.38l-39.41,39.4A1.67,1.67,0,0,1,152.92,106.21Z"/><path class="cls-5" d="M158.49,111.78a1.68,1.68,0,0,1,0-2.38L197.9,70a1.68,1.68,0,0,1,2.37,2.38l-39.41,39.41A1.68,1.68,0,0,1,158.49,111.78Z"/><path class="cls-5" d="M164.06,117.35a1.68,1.68,0,0,1,0-2.38l39.41-39.41a1.68,1.68,0,1,1,2.37,2.38l-39.4,39.41A1.7,1.7,0,0,1,164.06,117.35Z"/><path class="cls-5" d="M169.63,122.92a1.68,1.68,0,0,1,0-2.38L209,81.13a1.68,1.68,0,1,1,2.38,2.38L172,122.92A1.68,1.68,0,0,1,169.63,122.92Z"/><path class="cls-5" d="M175.2,128.49a1.7,1.7,0,0,1,0-2.38l39.41-39.4A1.68,1.68,0,0,1,217,89.08l-39.41,39.41A1.68,1.68,0,0,1,175.2,128.49Z"/><path class="cls-5" d="M180.77,134.06a1.68,1.68,0,0,1,0-2.37l39.41-39.41a1.68,1.68,0,0,1,2.38,2.37l-39.41,39.41A1.68,1.68,0,0,1,180.77,134.06Z"/><path class="cls-5" d="M186.34,139.63a1.68,1.68,0,0,1,0-2.37l39.41-39.41a1.68,1.68,0,1,1,2.38,2.38l-39.41,39.4A1.68,1.68,0,0,1,186.34,139.63Z"/><path class="cls-5" d="M191.92,145.21a1.68,1.68,0,0,1,0-2.38l39.41-39.41a1.68,1.68,0,0,1,2.37,2.38l-39.41,39.41A1.68,1.68,0,0,1,191.92,145.21Z"/><path class="cls-5" d="M197.49,150.78a1.68,1.68,0,0,1,0-2.38L236.9,109a1.68,1.68,0,0,1,2.37,2.38l-39.4,39.41A1.7,1.7,0,0,1,197.49,150.78Z"/><path class="cls-6" d="M101.87,113.08a5.15,5.15,0,0,0,0,7.3l64.73,64.73a5.17,5.17,0,0,0,7.3,0l2.89-2.9-72-72Z"/><rect class="cls-6" x="151.69" y="79.48" width="9.76" height="101.86" transform="translate(-46.35 148.91) rotate(-45)"/><rect class="cls-6" x="142.22" y="91.02" width="5.61" height="101.86" transform="translate(-57.9 144.14) rotate(-45)"/><rect class="cls-7" x="139.27" y="94.14" width="5.27" height="101.86" transform="translate(-61.01 142.83) rotate(-45)"/><rect class="cls-8" x="144.71" y="85.98" width="10.71" height="101.86" transform="translate(-52.86 146.21) rotate(-45)"/></g></g></svg>