<svg xmlns="http://www.w3.org/2000/svg" viewBox="0 0 280 280"><defs><style>.cls-1{fill:#4abab7;}.cls-2{fill:#fff;}.cls-3{fill:#44475a;}.cls-4{fill:#f0f3f3;}.cls-5{fill:#373b49;}.cls-6{fill:#bfc4c9;}</style></defs><title>pliers</title><g id="Layer_2" data-name="Layer 2"><g id="circles"><circle class="cls-1" cx="140" cy="140" r="140"/></g><g id="icons"><path class="cls-2" d="M134.27,99.79,153.63,94a18,18,0,0,0,7.83-4.6l19.9-19.9a16.07,16.07,0,0,1,5.92-3.74l16.32-5.85a3.27,3.27,0,0,1,3.39.76l4.57,4.57a1.59,1.59,0,0,1,0,2.25L202.05,77a1.59,1.59,0,0,1-1.92.25,8.37,8.37,0,0,0-11.42,11.42,1.59,1.59,0,0,1-.25,1.92l-25.19,25.19a3.54,3.54,0,0,1-2.22,1l-22.28,1.48Z"/><path class="cls-3" d="M130.58,121.5a3.58,3.58,0,0,0,4.26,2.73l9.39-2a1.42,1.42,0,0,0,.9-.63,1.44,1.44,0,0,0,.19-1.07L139.7,94.77a1.41,1.41,0,0,0-.62-.9,1.46,1.46,0,0,0-1.08-.19l-9.39,2a3.57,3.57,0,0,0-2.73,4.26,1.46,1.46,0,0,1-.19,1.08,1.43,1.43,0,0,1-.9.62L119.05,103a1.43,1.43,0,0,1-1.7-1.1l-.06-.26a3.25,3.25,0,0,0-1.47-2.07,3.21,3.21,0,0,0-2.51-.39c-37.24,9.35-54.23,35-76.65,66.41a8,8,0,0,0,1.82,11.16l8.1,5.88a8,8,0,0,0,11.25-1.82c22.25-31.09,28.27-45,61.55-53.11a3.6,3.6,0,0,0,2.67-4.27v0a1.43,1.43,0,0,1,1.09-1.7l5.74-1.25a1.46,1.46,0,0,1,1.08.19A1.43,1.43,0,0,1,130.58,121.5Z"/><path class="cls-4" d="M180.21,145.73,186,126.37a18,18,0,0,1,4.6-7.83l19.9-19.9a16.23,16.23,0,0,0,3.75-5.92l5.84-16.32a3.27,3.27,0,0,0-.76-3.39l-4.57-4.57a1.59,1.59,0,0,0-2.25,0L203,78a1.59,1.59,0,0,0-.25,1.92,8.37,8.37,0,0,1-11.42,11.42,1.59,1.59,0,0,0-1.92.25l-25.19,25.19a3.48,3.48,0,0,0-1,2.22l-1.49,22.28Z"/><path class="cls-5" d="M158.5,149.42a3.58,3.58,0,0,1-2.73-4.26l2-9.39a1.43,1.43,0,0,1,1.7-1.09l25.71,5.62a1.41,1.41,0,0,1,.9.62,1.46,1.46,0,0,1,.19,1.08l-2,9.39a3.57,3.57,0,0,1-4.26,2.73,1.46,1.46,0,0,0-1.08.19,1.43,1.43,0,0,0-.62.9L177.05,161a1.42,1.42,0,0,0,.2,1.08,1.39,1.39,0,0,0,.89.62l.27.06a3.25,3.25,0,0,1,2.07,1.47,3.19,3.19,0,0,1,.39,2.5c-9.35,37.25-35,54.24-66.41,76.66a8,8,0,0,1-11.16-1.82l-5.88-8.1a8,8,0,0,1,1.82-11.25c31.09-22.25,45-28.27,53.11-61.55a3.6,3.6,0,0,1,4.27-2.67h0a1.43,1.43,0,0,0,1.7-1.09l1.25-5.74A1.43,1.43,0,0,0,158.5,149.42Z"/><path class="cls-6" d="M182,116.49a13,13,0,1,1,0-18.4A13,13,0,0,1,182,116.49Z"/><path class="cls-2" d="M179.1,113.56a8.87,8.87,0,1,1,0-12.54A8.87,8.87,0,0,1,179.1,113.56Z"/></g></g></svg>