<svg xmlns="http://www.w3.org/2000/svg" viewBox="0 0 280 280"><defs><style>.cls-1{fill:#ceb097;}.cls-2{fill:#2390ad;}.cls-3{fill:#344f6a;}.cls-4{fill:#9be0fd;}.cls-5{opacity:0.15;}</style></defs><title>tank</title><g id="Layer_2" data-name="Layer 2"><g id="circles"><circle class="cls-1" cx="140" cy="140" r="140"/></g><g id="icons"><path class="cls-2" d="M240.19,72.53v14.4a4,4,0,0,1-4,4H181.37a4,4,0,0,1-4-4V72.53Z"/><path class="cls-3" d="M248.18,130.52v38.86a4.91,4.91,0,0,1-4.92,4.91H156.33V125.6h86.93A4.92,4.92,0,0,1,248.18,130.52Z"/><rect class="cls-3" x="192.82" y="90.92" width="31.94" height="34.68"/><path class="cls-3" d="M49.11,126.91V173h-14a3.26,3.26,0,0,1-3.25-3.25V130.16a3.26,3.26,0,0,1,3.25-3.25Z"/><path class="cls-4" d="M137.06,105.14v89.92l-.66,1.76a7.39,7.39,0,0,1-12.85,1.87l-2.73-3.63H81.69V105.14h39.8l2-3.5a6.85,6.85,0,0,1,12.09.46Z"/><path class="cls-2" d="M160.62,127.25v45.07a15.9,15.9,0,0,1-.13,2,15,15,0,0,1-14.87,13h-8.56V112.58H146A14.66,14.66,0,0,1,160,123.18a13.81,13.81,0,0,1,.47,2.42A12.82,12.82,0,0,1,160.62,127.25Z"/><path class="cls-3" d="M124.29,113.22c1.38,0,2.5,1.57,2.5,3.5h0c0,1.92-1.11,3.48-2.49,3.48H93.2c-1.34,0-2.42-1.52-2.42-3.38v-.3c0-1.83,1.06-3.3,2.36-3.3Z"/><path class="cls-3" d="M124.29,130.56c1.38,0,2.5,1.57,2.5,3.5h0c0,1.92-1.11,3.48-2.49,3.48H93.2c-1.34,0-2.42-1.52-2.42-3.38v-.3c0-1.82,1.06-3.3,2.36-3.3Z"/><path class="cls-3" d="M124.29,147.9c1.38,0,2.5,1.57,2.5,3.5h0c0,1.92-1.11,3.48-2.49,3.48H93.2c-1.34,0-2.42-1.51-2.42-3.38v-.3c0-1.82,1.06-3.3,2.36-3.3Z"/><path class="cls-3" d="M124.29,165.24c1.38,0,2.5,1.57,2.5,3.5h0c0,1.92-1.11,3.48-2.49,3.48H93.2c-1.34,0-2.42-1.51-2.42-3.38v-.3c0-1.82,1.06-3.3,2.36-3.3Z"/><path class="cls-3" d="M124.29,182.58c1.38,0,2.5,1.57,2.5,3.51h0c0,1.92-1.11,3.47-2.49,3.47H93.2c-1.34,0-2.42-1.51-2.42-3.38v-.3c0-1.82,1.06-3.3,2.36-3.3Z"/><path class="cls-2" d="M82.82,105.14v89.92l-.12.31-.4,1.1a7.61,7.61,0,0,1-13.23,1.92l-2.49-3.33a17.62,17.62,0,0,1-17.47-17.64V122.77a17.62,17.62,0,0,1,17.77-17.63h.37L69.08,102a7,7,0,0,1,12.44.48Z"/><path class="cls-5" d="M248.18,151.39v18a4.91,4.91,0,0,1-4.92,4.91H160.49a15,15,0,0,1-14.87,13h-8.56v7.74l-.66,1.76a7.39,7.39,0,0,1-12.85,1.87l-2.73-3.63h-38l-.12.31-.4,1.1a7.61,7.61,0,0,1-13.23,1.92l-2.49-3.33a17.62,17.62,0,0,1-17.47-17.64V173h-14a3.26,3.26,0,0,1-3.25-3.25V151.39Z"/><path class="cls-5" d="M240.19,81.73v5.2a4,4,0,0,1-4,4H181.37a4,4,0,0,1-4-4v-5.2Z"/></g></g></svg>