<svg xmlns="http://www.w3.org/2000/svg" viewBox="0 0 280 280"><defs><style>.cls-1{fill:#79bd8f;}.cls-2{fill:#f0f3f3;}.cls-3{fill:#bfc4c9;}.cls-4{fill:#fff;}.cls-5{fill:#44475a;}.cls-6{fill:#696c7c;}</style></defs><title>screw</title><g id="Layer_2" data-name="Layer 2"><g id="circles"><circle class="cls-1" cx="140" cy="140" r="140"/></g><g id="icons"><path class="cls-2" d="M166.07,118.28l-9.23,34.46a6.5,6.5,0,0,1-4.57,4.58l-34.46,9.23,67.94,67.94A99.87,99.87,0,0,0,235,187.17Z"/><path class="cls-3" d="M160.33,139.7l-3.49,13a6.5,6.5,0,0,1-4.57,4.58l-13,3.49,63.84,63.84a100.14,100.14,0,0,0,21.5-20.72Z"/><path class="cls-4" d="M176,99.5a11.21,11.21,0,0,0-2.9-10.83L133.24,48.8a11.19,11.19,0,0,0-10.83-2.9l-19.3,5.16a2.85,2.85,0,0,0-1.27,4.75l24.27,24.27a28.19,28.19,0,0,1,0,39.87l-6.51,6.52a28.39,28.39,0,0,1-40.12,0L55.33,102.32a2.83,2.83,0,0,0-4.74,1.27l-5.17,19.3a11.19,11.19,0,0,0,2.9,10.82L88.2,173.59A11.21,11.21,0,0,0,99,176.49l54.47-14.6a11.2,11.2,0,0,0,7.93-7.92Z"/><path class="cls-5" d="M62.66,102.62a4.93,4.93,0,0,1-1.28-4.76L68.33,72a4.93,4.93,0,0,1,3.48-3.49l25.91-6.94a4.93,4.93,0,0,1,4.77,1.28l19,19a4.91,4.91,0,0,1,1.28,4.76l-6.94,25.91a4.93,4.93,0,0,1-3.49,3.48l-25.91,7a4.93,4.93,0,0,1-4.76-1.28Z"/><path class="cls-6" d="M106.89,99.45l-7.25-7.26,7.25-7.25a2.5,2.5,0,0,0,0-3.53l-4-4a2.49,2.49,0,0,0-3.53,0l-7.25,7.25-7.25-7.25a2.51,2.51,0,0,0-3.54,0l-4,4a2.5,2.5,0,0,0,0,3.53l7.25,7.25-7.25,7.25a2.52,2.52,0,0,0,0,3.54l4,4a2.52,2.52,0,0,0,3.54,0l7.25-7.25L99.31,107a2.5,2.5,0,0,0,3.53,0l4-4A2.49,2.49,0,0,0,106.89,99.45Z"/></g></g></svg>