<svg xmlns="http://www.w3.org/2000/svg" viewBox="0 0 280 280"><defs><style>.cls-1{fill:#4abab7;}.cls-2{fill:#44475a;}.cls-3{fill:#bfc4c9;}.cls-4{fill:#696c7c;}.cls-5{fill:#f0f3f3;}</style></defs><title>screw feeder</title><g id="Layer_2" data-name="Layer 2"><g id="circles"><circle class="cls-1" cx="140" cy="140" r="140" transform="translate(-57.99 140) rotate(-45)"/></g><g id="icons"><path class="cls-2" d="M211.82,240.69l29-29.49c5.86-6,7.11-14.22,2.81-18.52L200,149.05l-67.5,34.14,60.55,60.56C197.43,248.12,205.86,246.74,211.82,240.69Z"/><path class="cls-2" d="M82.33,33.41,80,34.34A81.06,81.06,0,0,0,34.47,79.86L33.61,82a2.64,2.64,0,0,0,.58,2.84L151,201.7l50.83-50.82L84.91,34A2.4,2.4,0,0,0,82.33,33.41Z"/><polygon class="cls-3" points="144.4 177.72 176.84 165.44 177.04 144.16 144.4 156.51 144.4 177.72"/><polygon class="cls-3" points="115.1 148.65 147.81 136.27 147.81 115.06 114.95 127.49 115.1 148.65"/><polygon class="cls-3" points="85.88 119.55 118.62 107.16 118.62 85.92 85.88 98.31 85.88 119.55"/><polygon class="cls-3" points="56.69 90.4 89.34 78.04 89.34 56.77 56.64 69.15 56.69 90.4"/><polygon class="cls-3" points="173.57 206.89 206.31 194.5 206.31 173.26 173.57 185.65 173.57 206.89"/><polygon class="cls-4" points="69.17 56.63 56.54 56.52 56.64 69.16 212.67 225.19 225.2 212.66 69.17 56.63"/><polygon class="cls-5" points="129.01 162.34 177.04 144.16 163.35 130.38 115.1 148.65 129.01 162.34"/><polygon class="cls-5" points="99.78 133.24 147.81 115.06 134.12 101.29 85.88 119.55 99.78 133.24"/><polygon class="cls-5" points="70.59 104.1 118.62 85.92 104.93 72.15 56.69 90.41 70.59 104.1"/><polygon class="cls-5" points="187.47 220.58 235.5 202.4 221.82 188.63 173.57 206.89 187.47 220.58"/><polygon class="cls-5" points="158.28 191.44 206.31 173.26 192.63 159.49 144.38 177.75 158.28 191.44"/></g></g></svg>