<svg xmlns="http://www.w3.org/2000/svg" viewBox="0 0 280 280"><defs><style>.cls-1{fill:#f35b74;}.cls-2{fill:#696c7c;}.cls-3{fill:#344f6a;}.cls-4{fill:#f0f3f3;}.cls-5{opacity:0.1;}</style></defs><title>tank_1</title><g id="Layer_2" data-name="Layer 2"><g id="circles"><circle class="cls-1" cx="140" cy="140" r="140"/></g><g id="icons"><path class="cls-2" d="M134.52,216.54a11.26,11.26,0,0,0,11.26,11.26h70.46V216.54H148.66a1.32,1.32,0,0,1-1.32-1.31l-.05-9.61-12.77-.79v11.71Z"/><path class="cls-3" d="M132.24,33.69h9.12a2.89,2.89,0,0,1,2.89,2.89v22a0,0,0,0,1,0,0H129.36a0,0,0,0,1,0,0v-22A2.89,2.89,0,0,1,132.24,33.69Z"/><polygon class="cls-3" points="100.9 230.52 90.41 230.52 90.41 179.69 113.45 179.69 100.9 230.52"/><polygon class="cls-3" points="178.32 230.52 188.82 230.52 188.82 179.69 165.77 179.69 178.32 230.52"/><rect class="cls-4" x="79.84" y="121.33" width="21.06" height="23.54" rx="3.03"/><rect class="cls-4" x="178.29" y="121.42" width="21.06" height="23.54" rx="3.03"/><path class="cls-4" d="M188.82,82.35v99.2c0,14-23.6,33.2-47.62,33.2h-4.4V51.64h1.54C166.21,51.64,188.82,72.36,188.82,82.35Z"/><path class="cls-4" d="M84.79,82.35v99.2c0,14,23.6,33.2,47.61,33.2h4.4V51.64h-1.54C107.4,51.64,84.79,72.36,84.79,82.35Z"/><rect class="cls-3" x="89.49" y="130.29" width="100.23" height="5.27" rx="0.77"/><path class="cls-5" d="M136.46,51.64V214.75h-4.4c-24,0-47.61-19.2-47.61-33.2V144.88H82.53a3,3,0,0,1-3-3V124.36a3,3,0,0,1,3-3h1.92v-39c0-10,22.61-30.71,50.47-30.71Z"/></g></g></svg>