<svg xmlns="http://www.w3.org/2000/svg" viewBox="0 0 188.91 188.91"><defs><style>.cls-1{fill:#abc57e;}.cls-2{fill:#6d5c42;}.cls-3{fill:#a98c60;}.cls-4{fill:#344f6a;}.cls-5{fill:#2390ad;}</style></defs><title>transport</title><g id="Layer_2" data-name="Layer 2"><g id="circles"><path class="cls-1" d="M188.91,94.45A94.46,94.46,0,1,1,94.45,0,94,94,0,0,1,188.91,94.45Z"/><rect class="cls-2" x="51.94" y="76" width="47.99" height="17.97" rx="5.99"/><path class="cls-2" d="M140.67,57H106.52a2,2,0,0,0-2,2V92a2,2,0,0,0,2,2h34.15a2,2,0,0,0,2-2V59A2,2,0,0,0,140.67,57Z"/><path class="cls-3" d="M136.27,65V92a2.06,2.06,0,0,1-2.13,2H123.6V63h10.54A2.06,2.06,0,0,1,136.27,65Z"/><path class="cls-4" d="M156.21,90.73a2,2,0,0,0-1.57-.75H35.5a2,2,0,0,0-1.86,1.26,2,2,0,0,0,.49,2.2l34.23,31.94a2,2,0,0,0,1.37.53H147.2a2,2,0,0,0,1.94-1.54l7.45-31.94A2,2,0,0,0,156.21,90.73Z"/><path class="cls-5" d="M132,98.54a9.41,9.41,0,1,0,9.4,9.4A9.42,9.42,0,0,0,132,98.54Z"/><path class="cls-4" d="M132,102.31a5.42,5.42,0,1,0,5.41,5.41A5.42,5.42,0,0,0,132,102.31Z"/></g></g></svg>