<svg xmlns="http://www.w3.org/2000/svg" viewBox="0 0 280 280"><defs><style>.cls-1{fill:#ffca08;}.cls-2{fill:#f0f3f3;}.cls-3{fill:#bfc4c9;}.cls-4{fill:#242633;}.cls-5{fill:#44475a;}.cls-6{fill:#be3521;}.cls-7{fill:#d15200;}.cls-8{fill:#fff;}</style></defs><title>wrench</title><g id="Layer_2" data-name="Layer 2"><g id="circles"><circle class="cls-1" cx="140" cy="140" r="140"/></g><g id="icons"><path class="cls-2" d="M200.55,110.08,181,90.54l3.13-3.13a3,3,0,0,1,4.23,0l15.31,15.31a3,3,0,0,1,0,4.24Z"/><polygon class="cls-2" points="128.83 96.99 126.56 94.72 124.42 96.86 126.69 99.13 124.55 101.27 122.28 99 120.14 101.14 122.41 103.41 120.27 105.55 117.99 103.28 115.85 105.42 118.13 107.69 115.99 109.83 113.71 107.56 111.57 109.7 113.85 111.97 111.71 114.12 109.43 111.84 107.29 113.98 109.56 116.26 107.42 118.4 105.15 116.12 103.01 118.26 105.28 120.54 103.14 122.68 100.87 120.41 98.73 122.55 101 124.82 98.86 126.96 96.59 124.69 94.45 126.83 96.72 129.1 94.58 131.24 92.31 128.97 90.17 131.11 98.69 139.63 136.71 101.61 130.46 95.36 128.83 96.99"/><polygon class="cls-3" points="141.46 113.9 143.6 111.76 141.32 109.49 142.95 107.86 136.71 101.61 98.69 139.63 107.21 148.15 109.35 146.01 107.08 143.74 109.22 141.59 111.49 143.87 113.63 141.73 111.36 139.45 113.5 137.31 115.77 139.59 117.91 137.45 115.64 135.17 117.78 133.03 120.05 135.31 122.19 133.17 119.92 130.89 122.06 128.75 124.33 131.03 126.47 128.88 124.2 126.61 126.34 124.47 128.61 126.75 130.75 124.61 128.48 122.33 130.62 120.19 132.9 122.46 135.04 120.32 132.76 118.05 134.9 115.91 137.18 118.18 139.32 116.04 137.04 113.77 139.18 111.63 141.46 113.9"/><path class="cls-4" d="M142.15,149,81.39,209.7a6.9,6.9,0,0,1-9.75,9.76L66.11,225l1.3,1.3a12,12,0,0,0,17,0l67.56-67.56Z"/><path class="cls-5" d="M71.64,219.46a6.9,6.9,0,1,1,9.75-9.76h0L142.15,149l-9.78-9.77L64.81,206.74a12,12,0,0,0,0,16.94l1.3,1.3,5.53-5.52Z"/><path class="cls-6" d="M201,114.74a3,3,0,0,0,0-4.23l-50-50a3,3,0,0,0-4.24,0L133.92,73.37l34.53,34.54a10.43,10.43,0,0,1,0,14.74L142.15,149l10.19,10.19a3,3,0,0,0,4.24,0l18-18,14.77-14.77Z"/><path class="cls-7" d="M133.92,73.37,122.46,84.83a3,3,0,0,0,0,4.24l25.35,25.34a3,3,0,0,1,0,4.24L132,134.52a3,3,0,0,0,0,4.23l10.2,10.2,26.3-26.3a10.42,10.42,0,0,0,0-14.74Z"/><path class="cls-4" d="M152.41,99.87a2.47,2.47,0,0,1-3.53,0L138.44,89.44a2.51,2.51,0,0,1,0-3.54l8-8a2.49,2.49,0,0,1,3.53,0l10.44,10.43a2.52,2.52,0,0,1,0,3.54Z"/><rect class="cls-5" x="142.48" y="87.27" width="11.96" height="1.29" rx="0.15" transform="translate(-18.68 130.73) rotate(-45)"/><rect class="cls-5" x="144.42" y="89.21" width="11.96" height="1.29" rx="0.15" transform="translate(-19.49 132.67) rotate(-45)"/><rect class="cls-5" x="140.54" y="85.33" width="11.96" height="1.29" rx="0.15" transform="translate(-17.88 128.79) rotate(-45)"/><rect class="cls-5" x="138.6" y="83.39" width="11.96" height="1.29" rx="0.15" transform="translate(-17.07 126.84) rotate(-45)"/><rect class="cls-5" x="146.37" y="91.15" width="11.96" height="1.29" rx="0.15" transform="translate(-20.29 134.61) rotate(-45)"/><rect class="cls-5" x="148.31" y="93.1" width="11.96" height="1.29" rx="0.15" transform="translate(-21.1 136.55) rotate(-45)"/><path class="cls-8" d="M223.18,93.36l6.64-6.64a3,3,0,0,0,0-4.24L201.35,54,186.43,39.08a3,3,0,0,0-4.24,0L167.48,53.79,155.87,65.4l8.52,8.52,14.67-14.66a7.07,7.07,0,0,1,10,0Z"/><path class="cls-2" d="M182.41,73a3,3,0,0,1,4.23,0L213,99.31a3,3,0,0,0,4.24,0l6-6-34.11-34.1a7.07,7.07,0,0,0-10,0L164.39,73.92l8.52,8.52Z"/></g></g></svg>