<svg xmlns="http://www.w3.org/2000/svg" viewBox="0 0 280 280"><defs><style>.cls-1{fill:#f35b74;}.cls-2{fill:#575b6d;}.cls-3{fill:#242633;}.cls-4{fill:#44475a;}.cls-5{fill:#f0f3f3;}.cls-6{fill:#fff;}.cls-7{fill:#bfc4c9;}</style></defs><title>axe</title><g id="Layer_2" data-name="Layer 2"><g id="circles"><circle class="cls-1" cx="140" cy="140" r="140"/></g><g id="icons"><path class="cls-2" d="M181,64l-4.55-4.55a2.5,2.5,0,0,0-3.54,0L20.07,212.26q2.37,3.92,5,7.66Z"/><path class="cls-3" d="M200.07,83l-4.55-4.56L38.06,235.94c2,2.18,4.16,4.28,6.33,6.32L200.07,86.58A2.5,2.5,0,0,0,200.07,83Z"/><path class="cls-4" d="M38.06,235.94,195.52,78.48,181,64l-155.95,156A139.16,139.16,0,0,0,38.06,235.94Z"/><path class="cls-5" d="M224.65,126,155.06,56.42,94.85,116.64c21.14,21,47.13,48.8,64.32,93.42q8.91-7.42,17.47-16C198.17,172.57,214.45,148.88,224.65,126Z"/><path class="cls-6" d="M144.13,45.49a1.36,1.36,0,0,0-1.94,0L83.85,103.83a1.35,1.35,0,0,0-.41,1,1.38,1.38,0,0,0,.41,1c3.45,3.43,7.14,7,11,10.87l60.21-60.22Z"/><path class="cls-7" d="M238.58,141.4a1.37,1.37,0,0,0-.21-1.67L224.65,126c-10.2,22.87-26.48,46.56-48,68.09q-8.53,8.55-17.47,16c2.45,6.36,4.73,13.05,6.79,20.13a1.38,1.38,0,0,0,1,.95,1.36,1.36,0,0,0,1.31-.37C195.28,203.58,217.1,177.67,238.58,141.4Z"/></g></g></svg>