<svg xmlns="http://www.w3.org/2000/svg" xmlns:xlink="http://www.w3.org/1999/xlink" viewBox="0 0 280 280"><defs><style>.cls-1{fill:#aa8379;}.cls-2{fill:url(#linear-gradient);}.cls-3{fill:#d8d8d8;}.cls-4{fill:#242633;}.cls-5{fill:#ffca08;}.cls-6{fill:url(#linear-gradient-2);}.cls-7{fill:#bfc4c9;}.cls-8{fill:#373b49;}</style><linearGradient id="linear-gradient" x1="-2734.81" y1="906.83" x2="-2692.07" y2="906.83" gradientTransform="translate(1431.32 -2406.34) rotate(-45)" gradientUnits="userSpaceOnUse"><stop offset="0" stop-color="#fff"/><stop offset="1" stop-color="#f0f3f3"/></linearGradient><linearGradient id="linear-gradient-2" x1="56.65" y1="78.71" x2="101.19" y2="78.71" gradientUnits="userSpaceOnUse"><stop offset="0" stop-color="#44475a"/><stop offset="1" stop-color="#242633"/></linearGradient></defs><title>cut</title><g id="Layer_2" data-name="Layer 2"><g id="circles"><circle class="cls-1" cx="140" cy="140" r="140"/></g><g id="icons"><polygon class="cls-2" points="104.08 73.54 73.85 103.77 203.64 233.56 221.35 190.82 104.08 73.54"/><polygon class="cls-3" points="192.87 222.78 210.57 180.04 209.35 178.81 191.64 221.56 192.87 222.78"/><polygon class="cls-3" points="181.69 211.61 199.4 168.87 198.18 167.64 180.47 210.39 181.69 211.61"/><polygon class="cls-3" points="170.52 200.44 188.23 157.7 187.01 156.47 169.3 199.22 170.52 200.44"/><polygon class="cls-3" points="159.35 189.27 177.06 146.53 175.84 145.3 158.13 188.04 159.35 189.27"/><polygon class="cls-3" points="148.18 178.1 165.89 135.35 164.67 134.13 146.96 176.87 148.18 178.1"/><polygon class="cls-3" points="137.01 166.93 154.72 124.19 153.5 122.96 135.79 165.7 137.01 166.93"/><polygon class="cls-3" points="125.84 155.76 143.55 113.01 142.33 111.79 124.62 154.53 125.84 155.76"/><polygon class="cls-3" points="113.45 143.36 114.67 144.59 132.38 101.84 131.16 100.62 113.45 143.36"/><rect class="cls-4" x="64.88" y="80.61" width="42.75" height="10.68" transform="translate(-35.51 86.17) rotate(-45)"/><path class="cls-5" d="M94.57,70.13a1,1,0,0,0,0,1.43l17.25,17.25a.92.92,0,0,0,1.3,0l.12-.12a.92.92,0,0,1,1.3,0l1.9,1.91a.92.92,0,0,1,0,1.3l-1.75,1.76a.92.92,0,0,0,0,1.3l1.7,1.7a.92.92,0,0,0,1.3,0l1.76-1.76a.92.92,0,0,1,1.3,0l1.9,1.91a.92.92,0,0,1,0,1.3l-1.75,1.75a.93.93,0,0,0,0,1.3l1.7,1.7a.92.92,0,0,0,1.3,0l1.76-1.75a.92.92,0,0,1,1.3,0l1.91,1.9a.92.92,0,0,1,0,1.3l-1.76,1.76a.92.92,0,0,0,0,1.3l1.7,1.7a.92.92,0,0,0,1.3,0l1.76-1.76a.92.92,0,0,1,1.3,0l1.9,1.91a.92.92,0,0,1,0,1.3l-1.75,1.76a.92.92,0,0,0,0,1.3l1.7,1.7a.92.92,0,0,0,1.3,0l1.76-1.76a.92.92,0,0,1,1.3,0l1.9,1.91a.92.92,0,0,1,0,1.3l-1.75,1.75a.92.92,0,0,0,0,1.3l1.69,1.7a.93.93,0,0,0,1.31,0l1.75-1.75a.92.92,0,0,1,1.3,0l1.91,1.9a.92.92,0,0,1,0,1.3l-1.76,1.76a.92.92,0,0,0,0,1.3l1.7,1.7a.92.92,0,0,0,1.3,0l1.76-1.76a.94.94,0,0,1,1.3,0l1.9,1.91a.92.92,0,0,1,0,1.3l-1.75,1.76a.92.92,0,0,0,0,1.3l1.7,1.7a.92.92,0,0,0,1.3,0l1.76-1.76a.92.92,0,0,1,1.3,0l1.9,1.91a.92.92,0,0,1,0,1.3l-1.75,1.75a.92.92,0,0,0,0,1.3l1.7,1.7a.92.92,0,0,0,1.3,0l1.75-1.75a.92.92,0,0,1,1.3,0l1.91,1.9a.92.92,0,0,1,0,1.3l-1.76,1.76a.92.92,0,0,0,0,1.3l1.7,1.7a.92.92,0,0,0,1.3,0l1.76-1.75a.92.92,0,0,1,1.3,0l1.91,1.9a.94.94,0,0,1,0,1.3l-1.76,1.76a.92.92,0,0,0,0,1.3l1.7,1.7a.92.92,0,0,0,1.3,0l1.76-1.76a.92.92,0,0,1,1.3,0l1.9,1.91a.92.92,0,0,1,0,1.3l-1.75,1.75a.93.93,0,0,0,0,1.31l1.7,1.69a.92.92,0,0,0,1.3,0l1.75-1.75a.92.92,0,0,1,1.3,0l1.91,1.9a.92.92,0,0,1,0,1.3L183,161.93a.92.92,0,0,0,0,1.3l1.7,1.7a.92.92,0,0,0,1.3,0l1.76-1.75a.92.92,0,0,1,1.3,0l1.91,1.9a.94.94,0,0,1,0,1.3l-1.76,1.76a.92.92,0,0,0,0,1.3l1.7,1.7a.92.92,0,0,0,1.3,0l1.76-1.76a.92.92,0,0,1,1.3,0l1.9,1.91a.92.92,0,0,1,0,1.3l-.11.11a.92.92,0,0,0,0,1.3l5.44,5.44a4,4,0,0,1,0,5.68l-17.13,17.13a4,4,0,0,1-5.68,0l-5.44-5.44a.92.92,0,0,0-1.3,0l-.11.11a.92.92,0,0,1-1.3,0l-1.91-1.9a.92.92,0,0,1,0-1.3l1.76-1.76a.92.92,0,0,0,0-1.3l-1.7-1.7a.92.92,0,0,0-1.3,0l-1.76,1.76a.92.92,0,0,1-1.3,0l-1.91-1.91a.93.93,0,0,1,0-1.3l1.75-1.76a.92.92,0,0,0,0-1.3l-1.7-1.7a.92.92,0,0,0-1.3,0l-1.76,1.76a.92.92,0,0,1-1.3,0l-1.9-1.91a.92.92,0,0,1,0-1.3l1.75-1.75a.92.92,0,0,0,0-1.3l-1.7-1.7a.92.92,0,0,0-1.3,0l-1.75,1.75a.92.92,0,0,1-1.3,0L151,176.4a.92.92,0,0,1,0-1.3l1.76-1.76a.92.92,0,0,0,0-1.3l-1.7-1.7a.92.92,0,0,0-1.3,0L148,172.1a.94.94,0,0,1-1.3,0l-1.91-1.91a.93.93,0,0,1,0-1.3l1.75-1.76a.92.92,0,0,0,0-1.3l-1.7-1.7a.92.92,0,0,0-1.3,0l-1.76,1.76a.92.92,0,0,1-1.3,0l-1.9-1.91a.92.92,0,0,1,0-1.3l1.75-1.75a.92.92,0,0,0,0-1.3l-1.7-1.7a.92.92,0,0,0-1.3,0l-1.75,1.75a.92.92,0,0,1-1.3,0l-1.91-1.9a.92.92,0,0,1,0-1.3l1.76-1.76a.92.92,0,0,0,0-1.3l-1.7-1.7a.92.92,0,0,0-1.3,0l-1.76,1.76a.94.94,0,0,1-1.3,0l-1.91-1.91a.93.93,0,0,1,0-1.3l1.76-1.76a.92.92,0,0,0,0-1.3l-1.7-1.7a.92.92,0,0,0-1.3,0l-1.76,1.76a.92.92,0,0,1-1.3,0l-1.9-1.91a.92.92,0,0,1,0-1.3l1.75-1.75a.93.93,0,0,0,0-1.31l-1.7-1.69a.92.92,0,0,0-1.3,0l-1.75,1.75a.92.92,0,0,1-1.3,0l-1.91-1.9a.92.92,0,0,1,0-1.3l1.76-1.76a.92.92,0,0,0,0-1.3l-1.7-1.7a.92.92,0,0,0-1.3,0l-1.76,1.75a.92.92,0,0,1-1.3,0l-1.91-1.9a.92.92,0,0,1,0-1.3l1.76-1.76a.92.92,0,0,0,0-1.3l-1.7-1.7a.92.92,0,0,0-1.3,0l-1.76,1.76a.92.92,0,0,1-1.3,0l-1.9-1.91a.92.92,0,0,1,0-1.3l1.75-1.75a.93.93,0,0,0,0-1.31l-1.7-1.69a.92.92,0,0,0-1.3,0l-1.75,1.75a.92.92,0,0,1-1.3,0l-1.91-1.9a.92.92,0,0,1,0-1.3l1.76-1.76a.92.92,0,0,0,0-1.3l-1.7-1.7a.93.93,0,0,0-1.31,0l-1.75,1.75a.92.92,0,0,1-1.3,0l-1.91-1.9a.92.92,0,0,1,0-1.3l.12-.12a.92.92,0,0,0,0-1.3L71.77,94.36a1,1,0,0,0-1.43,0l-6.57,6.57L179.2,216.36l24.46-5.56L216.57,179,101.14,63.57Z"/><path class="cls-6" d="M101.19,63.62a24.5,24.5,0,0,0-34.65,0l-2.72,2.72a24.5,24.5,0,0,0,0,34.64l8.26-8.25a1,1,0,0,1,1.42,0L77.82,97a1,1,0,0,0,1.43,0l18-18a1,1,0,0,0,0-1.43L92.94,73.3a1,1,0,0,1,0-1.43Z"/><path class="cls-4" d="M101.6,96.35a3.49,3.49,0,1,1-4.94,0A3.5,3.5,0,0,1,101.6,96.35Z"/><path class="cls-7" d="M100.5,97.45a1.94,1.94,0,1,1-2.74,0A1.93,1.93,0,0,1,100.5,97.45Z"/><path class="cls-8" d="M143.06,119.37l-23.68,23.68a2.58,2.58,0,0,0,0,3.65l15.47,15.47,27.33-27.33-15.46-15.47A2.59,2.59,0,0,0,143.06,119.37Z"/><path class="cls-4" d="M148.84,176.16a2.59,2.59,0,0,0,3.66,0l23.68-23.68a2.58,2.58,0,0,0,0-3.65L161.5,134.16l-27.33,27.33Z"/><path class="cls-8" d="M170.89,150.43a.45.45,0,0,1,.64.64l-20.45,20.44a.45.45,0,1,1-.63-.63Z"/><path class="cls-8" d="M167.62,147.17a.45.45,0,0,1,.64.63l-20.44,20.45a.47.47,0,0,1-.64,0,.46.46,0,0,1,0-.64Z"/><path class="cls-8" d="M164.36,143.9a.45.45,0,0,1,.63,0,.45.45,0,0,1,0,.64L144.55,165a.45.45,0,0,1-.64,0,.47.47,0,0,1,0-.64Z"/><path class="cls-8" d="M161.09,140.64a.45.45,0,0,1,.64,0,.45.45,0,0,1,0,.63l-20.45,20.44a.45.45,0,0,1-.63-.63Z"/><path class="cls-4" d="M154.32,133.86a.45.45,0,0,1,.63,0,.45.45,0,0,1,0,.64l-20.44,20.44a.45.45,0,0,1-.64,0,.47.47,0,0,1,0-.64Z"/><path class="cls-4" d="M151.05,130.6a.45.45,0,0,1,.64,0,.45.45,0,0,1,0,.63l-20.45,20.44a.45.45,0,0,1-.63-.63Z"/><path class="cls-4" d="M147.79,127.33a.44.44,0,0,1,.63,0,.45.45,0,0,1,0,.64L128,148.41a.45.45,0,1,1-.64-.64Z"/><path class="cls-4" d="M144.52,124.06a.47.47,0,0,1,.64,0,.46.46,0,0,1,0,.64l-20.44,20.44a.45.45,0,0,1-.63-.63Z"/></g></g></svg>