<svg xmlns="http://www.w3.org/2000/svg" viewBox="0 0 280 280"><defs><style>.cls-1{fill:#8dd8f8;}.cls-2{fill:#801b53;}.cls-3{fill:#b4236e;}.cls-4{fill:#f35b74;}.cls-5{fill:#575b6d;}.cls-6{fill:#373b49;}.cls-7{fill:#242633;}.cls-8{fill:#44475a;}.cls-9{fill:#fff;}</style></defs><title>drill</title><g id="Layer_2" data-name="Layer 2"><g id="circles"><circle class="cls-1" cx="140" cy="140" r="140"/></g><g id="icons"><path class="cls-2" d="M108,158.93h-8q.34,14.17,2.09,28.24a15.66,15.66,0,0,0,8.86-14.1V161.85A2.92,2.92,0,0,0,108,158.93Z"/><path class="cls-3" d="M58,151.77a187.18,187.18,0,0,0,4.61,37.33,45.23,45.23,0,0,0,44.11,35.39h0a3.75,3.75,0,0,0,3.65-4.64,288.5,288.5,0,0,1-8.15-68.08h40.38a6.26,6.26,0,0,0,6.26-6.26V116.64H28.5a39.06,39.06,0,0,0,0,8.78A29.71,29.71,0,0,0,58,151.77Z"/><path class="cls-3" d="M169.87,116.64V95.22a5.54,5.54,0,0,0-5.53-5.53H148.91v27Z"/><path class="cls-2" d="M148.91,116.64v26.94h15.43a5.53,5.53,0,0,0,5.53-5.53V116.64Z"/><path class="cls-4" d="M148.91,87.76a6.25,6.25,0,0,0-6.26-6.25h-75A39.42,39.42,0,0,0,28.5,116.64H148.91V87.76Z"/><polygon class="cls-5" points="263.74 116.64 263.74 116.64 258.21 112.94 224.63 112.94 224.63 116.64 263.74 116.64"/><polygon class="cls-6" points="263.74 116.64 224.63 116.64 224.63 120.33 258.21 120.33 263.74 116.64"/><path class="cls-7" d="M218.54,116.64H177.77v16.25a2.21,2.21,0,0,0,2.21,2.22h37.56a2.22,2.22,0,0,0,1.67-.76l4.87-5.57a2.22,2.22,0,0,0,.55-1.46V116.64Z"/><path class="cls-8" d="M219.2,98.92a2.19,2.19,0,0,0-1.66-.75H180a2.21,2.21,0,0,0-2.21,2.21v16.26h46.86V106a2.22,2.22,0,0,0-.55-1.45Z"/><rect class="cls-8" x="169.87" y="116.64" width="7.9" height="7.82"/><rect class="cls-5" x="169.87" y="108.82" width="7.9" height="7.82"/><path class="cls-9" d="M93,173.6a10.55,10.55,0,1,1-10.55-10.55A10.55,10.55,0,0,1,93,173.6Z"/><path class="cls-2" d="M88.65,173.6a6.18,6.18,0,1,1-6.18-6.18A6.18,6.18,0,0,1,88.65,173.6Z"/><rect class="cls-6" x="182.63" y="103.79" width="2.92" height="25.7" rx="1.36"/><rect class="cls-6" x="188.22" y="103.79" width="2.92" height="25.7" rx="1.36"/><rect class="cls-6" x="193.81" y="103.79" width="2.92" height="25.7" rx="1.36"/><rect class="cls-6" x="199.4" y="103.79" width="2.92" height="25.7" rx="1.36"/><rect class="cls-6" x="204.99" y="103.79" width="2.92" height="25.7" rx="1.36"/><rect class="cls-6" x="210.58" y="103.79" width="2.92" height="25.7" rx="1.36"/><rect class="cls-6" x="216.17" y="103.79" width="2.92" height="25.7" rx="1.36"/><rect class="cls-3" x="101.77" y="89.69" width="39.57" height="5.76" rx="1.88"/><rect class="cls-3" x="101.77" y="101.73" width="39.57" height="5.76" rx="1.88"/><rect class="cls-2" x="101.77" y="113.76" width="39.57" height="5.76" rx="1.88"/><rect class="cls-2" x="101.77" y="125.79" width="39.57" height="5.76" rx="1.88"/><rect class="cls-2" x="101.77" y="137.82" width="39.57" height="5.76" rx="1.88"/></g></g></svg>