<svg xmlns="http://www.w3.org/2000/svg" viewBox="0 0 280 280"><defs><style>.cls-1{fill:#44475a;}.cls-2{fill:#bfc4c9;}.cls-3{fill:#8dd8f8;}.cls-4{fill:#f0f3f3;}</style></defs><title>filter</title><g id="Layer_2" data-name="Layer 2"><g id="circles"><circle class="cls-1" cx="140" cy="140" r="140"/></g><g id="icons"><polygon class="cls-2" points="140 75.33 140 147.56 117.25 147.56 84.55 109.45 84.54 109.45 80.33 104.56 55.25 75.33 140 75.33"/><polygon class="cls-2" points="224.76 75.33 199.67 104.56 195.46 109.45 162.76 147.56 140 147.56 140 75.33 224.76 75.33"/><polygon class="cls-3" points="162.76 216.17 117.24 244.17 117.24 147.39 162.76 147.39 162.76 216.17"/><rect class="cls-4" x="51.67" y="72.06" width="176.67" height="14" rx="7"/><polygon class="cls-3" points="199.67 104.56 195.46 109.45 162.76 147.56 117.25 147.56 84.55 109.45 84.54 109.45 80.33 104.56 199.67 104.56"/></g></g></svg>