<svg xmlns="http://www.w3.org/2000/svg" viewBox="0 0 188.89 188.91"><defs><style>.cls-1{fill:#abc57e;}.cls-2{fill:#2390ad;}.cls-3{fill:#344f6a;}.cls-4{fill:#77cce1;}.cls-5{fill:#9be0fd;}.cls-6{fill:#f15c00;}</style></defs><title>water</title><g id="Layer_2" data-name="Layer 2"><g id="circles"><path class="cls-1" d="M188.89,94.46a96.16,96.16,0,0,1-.81,12.44,94.46,94.46,0,0,1-93.63,82c-.42,0-.83,0-1.23,0a94.45,94.45,0,1,1,95.67-94.43Z"/><path class="cls-2" d="M93,71.79a42.9,42.9,0,0,0-42.86,42.85,1.11,1.11,0,0,0,1.11,1.1H67.28a1.11,1.11,0,0,0,1.11-1.1A24.62,24.62,0,0,1,93,90.05a1.1,1.1,0,0,0,1.1-1.1V72.89A1.1,1.1,0,0,0,93,71.79Z"/><rect class="cls-3" x="92.98" y="67.43" width="34.69" height="26.34" rx="1.93"/><path class="cls-2" d="M123.82,87.63a1.27,1.27,0,0,1-1.27,1.28L100.82,72.73a1.28,1.28,0,0,1,1.28-1.28h20.45a1.27,1.27,0,0,1,1.27,1.28Z"/><path class="cls-3" d="M127.67,53.14c0,1-2,1.76-4.39,1.76H95.77c-2.42,0-4.39-.79-4.39-1.76h0c0-1,2-1.77,4.39-1.77h27.51c2.42,0,4.39.79,4.39,1.77Z"/><path class="cls-4" d="M70.79,141.68c0,7.59-4.38,10.5-9.78,10.5s-9.78-2.91-9.78-10.5,9.78-24,9.78-24S70.79,134.09,70.79,141.68Z"/><path class="cls-5" d="M62.59,144c0,3.15-1.82,4.35-4.06,4.35s-4.05-1.2-4.05-4.35,4.05-9.93,4.05-9.93S62.59,140.84,62.59,144Z"/><rect class="cls-3" x="107.42" y="54.9" width="4.68" height="12.53"/><path class="cls-6" d="M125.84,58.06a5,5,0,0,1-5,5h0a5,5,0,0,1-5-5V46.63a5,5,0,0,1,5-5h0a5,5,0,0,1,5,5Z"/><path class="cls-2" d="M104.12,58.06a5,5,0,0,1-5,5h0a5,5,0,0,1-5-5V46.63a5,5,0,0,1,5-5h0a5,5,0,0,1,5,5Z"/></g></g></svg>