<svg xmlns="http://www.w3.org/2000/svg" viewBox="0 0 280 280"><defs><style>.cls-1{fill:#8dd8f8;}.cls-2{fill:#fff;}.cls-3{fill:#f0f3f3;}.cls-4{fill:#f19d00;}.cls-5{fill:#e47e00;}.cls-6{fill:#ffca08;}.cls-7{fill:#44475a;}.cls-8{fill:#242633;}.cls-9{fill:#bfc4c9;}</style></defs><title>mortar</title><g id="Layer_2" data-name="Layer 2"><g id="circles"><circle class="cls-1" cx="140" cy="140" r="140"/></g><g id="icons"><path class="cls-2" d="M225.84,54.16a2.46,2.46,0,0,0-2.56-.6c-19.73,6.67-95.34,33.35-120.23,58.25l15.57,49.57h0Z"/><path class="cls-3" d="M226.44,56.73a2.47,2.47,0,0,0-.6-2.57h0L118.62,161.38,168.19,177C193.09,152.06,219.77,76.46,226.44,56.73Z"/><rect class="cls-4" x="99.92" y="167.94" width="7.36" height="7.01" transform="translate(-90.88 123.47) rotate(-45)"/><rect class="cls-5" x="104.88" y="172.89" width="7.36" height="7.01" transform="translate(-92.93 128.42) rotate(-45)"/><path class="cls-4" d="M113.64,176.28l2.81,2.8,1.82-1.82a2.5,2.5,0,0,0,0-3.54l-6-6-3.59,3.59Z"/><path class="cls-6" d="M112.27,167.73l-6-6a2.5,2.5,0,0,0-3.54,0l-1.82,1.82,2.81,2.81,5,5Z"/><path class="cls-4" d="M110.15,183.19l-1.71-1.71-5-5L68.86,211.14l8.44,8.44,32.85-32.86A2.5,2.5,0,0,0,110.15,183.19Z"/><path class="cls-6" d="M103.48,176.52l-5-5-1.71-1.71a2.5,2.5,0,0,0-3.53,0L60.43,202.7l8.43,8.44Z"/><path class="cls-6" d="M56.83,206.3l-.92.92a8.52,8.52,0,0,0,0,12l2.43,2.42,6.93-6.93Z"/><path class="cls-4" d="M58.34,221.66l2.42,2.43a8.51,8.51,0,0,0,12,0l.91-.92-8.43-8.44Z"/><rect class="cls-7" x="60.31" y="202.75" width="5.08" height="11.93" transform="translate(-129.18 105.56) rotate(-45)"/><rect class="cls-8" x="68.74" y="211.19" width="5.08" height="11.93" transform="translate(-132.67 114.01) rotate(-45)"/><rect class="cls-9" x="121.07" y="147.06" width="11.72" height="12.02" rx="4.5" transform="translate(-71.06 134.56) rotate(-44.99)"/><path class="cls-7" d="M129.66,150.34l-1.07-1.07a2.5,2.5,0,0,0-3.53,0l-15.62,15.62,2.83,2.84Z"/><path class="cls-8" d="M112.27,167.73l2.84,2.83,15.62-15.62a2.5,2.5,0,0,0,0-3.53l-1.07-1.07Z"/></g></g></svg>