<svg xmlns="http://www.w3.org/2000/svg" viewBox="0 0 280 280"><defs><style>.cls-1{fill:#ffca08;}.cls-2{fill:#d15200;}.cls-3{fill:#242633;}.cls-4{opacity:0.15;}.cls-5{fill:#44475a;}</style></defs><title>pipe</title><g id="Layer_2" data-name="Layer 2"><g id="circles"><circle class="cls-1" cx="140" cy="140" r="140"/><path class="cls-2" d="M228.25,77.15v34.92L87.32,112a4.31,4.31,0,0,0-4.24,4.37v32.49a4.31,4.31,0,0,0,4.24,4.38l140.93,0v34.92l-159.8,0c-11.45,0-20.73-9.58-20.73-21.4V98.51c0-11.82,9.28-21.4,20.73-21.4Z"/><rect class="cls-3" x="185.88" y="214.62" width="11.76" height="20.48" rx="1.87" transform="translate(215.16 -69.73) rotate(45)"/><path class="cls-4" d="M83.08,116.4v32.49a4.31,4.31,0,0,0,4.24,4.38l140.93,0v18l-151.85,0a11.81,11.81,0,0,1-11.62-12V106.35a11.79,11.79,0,0,1,11.62-12l151.85,0v17.65L87.32,112A4.31,4.31,0,0,0,83.08,116.4Z"/><rect class="cls-3" x="97.08" y="151.58" width="16.41" height="38.33" rx="2.29"/><rect class="cls-3" x="214.1" y="151.58" width="16.41" height="38.33" rx="2.29"/><rect class="cls-3" x="213.08" y="75.21" width="16.41" height="38.33" rx="2.29"/><rect class="cls-5" x="215.96" y="78.09" width="2.03" height="32.87" rx="0.72"/><rect class="cls-5" x="224.64" y="78.09" width="2.03" height="32.87" rx="0.72"/><rect class="cls-5" x="220.3" y="78.09" width="2.03" height="32.87" rx="0.72"/><rect class="cls-5" x="216.97" y="154.13" width="2.03" height="33.22" rx="0.72"/><rect class="cls-5" x="221.29" y="154.13" width="2.03" height="33.22" rx="0.72"/><rect class="cls-5" x="225.65" y="154.13" width="2.03" height="33.22" rx="0.72"/><path class="cls-2" d="M176.3,234.21l-45.58-45.58a1.37,1.37,0,0,0-.95-.4h-4.93l12.88-8.11,4.44-4.45,12.13-3.15,35.61,6.78-2.33,8.92h-7.48a.15.15,0,0,0-.1.25l21,21Z"/></g></g></svg>