<svg xmlns="http://www.w3.org/2000/svg" viewBox="0 0 280 280"><defs><style>.cls-1{fill:#ffca08;}.cls-2{fill:#f0f3f3;}.cls-3{fill:#fff;}.cls-4{fill:#44475a;}.cls-5{fill:#242633;}</style></defs><title>saw</title><g id="Layer_2" data-name="Layer 2"><g id="circles"><circle class="cls-1" cx="140" cy="140" r="140"/></g><g id="icons"><path class="cls-2" d="M179.54,119.64a13,13,0,0,1-7.16-2.78L54.43,212.8l6.14,6.14a29.92,29.92,0,0,0,13.53,7.77l-.68-7.06,8.18,1.81-.68-7.05,8.17,1.8-.68-7.05,8.18,1.8-.68-7.05,8.17,1.81-.68-7.06,8.18,1.81-.69-7.05,8.18,1.8-.68-7.05,8.17,1.8-.68-7.05,8.18,1.81-.68-7.06,8.17,1.81-.68-7,8.18,1.8-.68-7,8.17,1.8-.68-7,8.18,1.8-.68-7,8.17,1.81-.68-7.05,8.18,1.8-.68-7.05,8.17,1.8-.68-7.05,8.18,1.8-.69-7.05,8.18,1.81-.68-7.06,8.17,1.81L206.62,121a13.22,13.22,0,0,1-3.72.3Z"/><path class="cls-3" d="M171.22,115.85,147.9,92.54l-99.2,99.2a10.85,10.85,0,0,0,0,15.33l5.73,5.73,118-95.94A11.19,11.19,0,0,1,171.22,115.85ZM59.14,203.52a3.62,3.62,0,1,1,0-5.12A3.62,3.62,0,0,1,59.14,203.52Z"/><path class="cls-4" d="M214.25,105c-3.15,3.15-6.17,2.94-10.52,2a67.33,67.33,0,0,1-33-18.15,6.08,6.08,0,0,1,0-8.61L183.6,67.32l-7.77-7.77L144.51,90.87a2.55,2.55,0,0,0,0,3.6L170,119.91a13,13,0,0,0,8.32,3.79l23.37,1.62a13,13,0,0,0,10.12-3.79l13-13-7-7Z"/><path class="cls-5" d="M236.5,84.53l-36.69-36.7a8.67,8.67,0,0,0-12.26,0L175.83,59.55l7.77,7.77,2.81-2.81a6.11,6.11,0,0,1,8.62,0l25.56,25.56a6.1,6.1,0,0,1,0,8.62l-2.81,2.81,7,7L236.5,96.79A8.66,8.66,0,0,0,236.5,84.53Z"/><path class="cls-5" d="M156.81,94.5a2.28,2.28,0,1,1-3.23,0A2.28,2.28,0,0,1,156.81,94.5Z"/><path class="cls-5" d="M177.55,115.24a2.28,2.28,0,1,1-3.22,0A2.29,2.29,0,0,1,177.55,115.24Z"/><path class="cls-5" d="M203.31,117.65a2.28,2.28,0,1,1-3.22,0A2.28,2.28,0,0,1,203.31,117.65Z"/></g></g></svg>